<svg width="64" height="64" viewBox="0 0 64 64" fill="none" xmlns="http://www.w3.org/2000/svg">
<rect width="64" height="64" fill="#00EF8B"/>
<path d="M47.2925 26.1195H37.878V35.5338H47.2925V26.1195Z" fill="white"/>
<path d="M28.4752 39.0609C28.4752 39.7599 28.268 40.443 27.8796 41.0242C27.4914 41.6052 26.9395 42.0582 26.2938 42.3256C25.648 42.5932 24.9375 42.6631 24.252 42.5268C23.5666 42.3904 22.937 42.0539 22.4427 41.5596C21.9485 41.0655 21.612 40.4358 21.4757 39.7503C21.3393 39.0648 21.4093 38.3543 21.6766 37.7086C21.9442 37.063 22.397 36.5111 22.9782 36.1227C23.5593 35.7345 24.2425 35.5273 24.9415 35.5273H28.4752V26.1195H24.9415C22.3818 26.1195 19.8798 26.8784 17.7516 28.3005C15.6233 29.7226 13.9646 31.7436 12.9851 34.1084C12.0056 36.4731 11.7493 39.0753 12.2487 41.5857C12.748 44.0961 13.9806 46.4021 15.7904 48.2119C17.6003 50.0219 19.9064 51.2543 22.4167 51.7537C24.9271 52.253 27.5292 51.9968 29.8939 51.0173C32.2586 50.0377 34.2798 48.379 35.7019 46.2509C37.1238 44.1226 37.883 41.6204 37.883 39.0609V35.5273H28.4752V39.0609Z" fill="white"/>
<path d="M41.4121 21.412H52V11.9976H41.4121C37.981 12.0011 34.6913 13.3658 32.265 15.792C29.8388 18.2182 28.4742 21.5078 28.4706 24.9389V26.1191H37.8784V24.9389C37.8802 24.003 38.2533 23.1059 38.9158 22.4446C39.5783 21.7834 40.4762 21.412 41.4121 21.412Z" fill="white"/>
</svg>
